# MagicaVoxel @ Ephtracy

# group
o Player6

# material
mtllib Villano01-0-Player6.mtl
usemtl palette

# normals
vn -1 0 0
vn 1 0 0
vn 0 0 1
vn 0 0 -1
vn 0 -1 0
vn 0 1 0

# texcoords
vt 0.845703 0.5
vt 0.970703 0.5
vt 0.994141 0.5

# verts
v -1.7 3 2.23517e-08
v -1.7 3 -0.5
v -1.7 3.3 2.23517e-08
v -1.7 3.3 -0.5
v -1.5 2.4 2.23517e-08
v -1.5 2.4 -0.5
v -1.5 3 2.23517e-08
v -1.5 3 -0.5
v -1.3 0.9 2.23517e-08
v -1.3 0.9 -0.5
v -1.3 1.7 2.23517e-08
v -1.3 1.7 -0.5
v -1.3 2.4 2.23517e-08
v -1.3 2.4 -0.5
v -1 0.6 2.23517e-08
v -1 0.6 -0.5
v -1 0.9 2.23517e-08
v -1 0.9 -0.5
v -0.8 0.4 2.23517e-08
v -0.8 0.4 -0.5
v -0.8 0.6 2.23517e-08
v -0.8 0.6 -0.5
v -0.8 3.1 2.23517e-08
v -0.8 3.1 -0.5
v -0.8 3.3 2.23517e-08
v -0.8 3.3 -0.5
v -0.6 0.2 2.23517e-08
v -0.6 0.2 -0.5
v -0.6 0.4 2.23517e-08
v -0.6 0.4 -0.5
v -0.6 3.3 2.23517e-08
v -0.6 3.3 -0.5
v -0.6 3.6 2.23517e-08
v -0.6 3.6 -0.5
v -0.5 2.5 -0.3
v -0.5 2.5 -0.4
v -0.5 3.2 -0.3
v -0.5 3.2 -0.4
v -0.4 0 2.23517e-08
v -0.4 0 -0.5
v -0.4 0.2 2.23517e-08
v -0.4 0.2 -0.5
v -0.4 3.6 2.23517e-08
v -0.4 3.6 -0.5
v -0.4 3.8 2.23517e-08
v -0.4 3.8 -0.5
v -0.2 3.8 2.23517e-08
v -0.2 3.8 -0.5
v -0.2 4 2.23517e-08
v -0.2 4 -0.5
v 0.2 0.1 -0.2
v 0.2 0.1 -0.4
v 0.2 0.3 -0.2
v 0.2 0.3 -0.4
v 0.5 0.3 -0.3
v 0.5 0.3 -0.4
v 0.5 0.4 -0.3
v 0.5 0.4 -0.4
v 1.3 3.1 2.23517e-08
v 1.3 3.1 -0.5
v 1.3 3.3 2.23517e-08
v 1.3 3.3 -0.5
v -1.4 3.1 2.23517e-08
v -1.4 3.1 -0.5
v -1.4 3.3 2.23517e-08
v -1.4 3.3 -0.5
v -0.7 3 -0.3
v -0.7 3 -0.4
v -0.7 3.2 -0.3
v -0.7 3.2 -0.4
v -0.6 2.5 -0.3
v -0.6 2.5 -0.4
v -0.6 3 -0.3
v -0.6 3 -0.4
v 0.1 0.1 -0.2
v 0.1 0.1 -0.4
v 0.1 0.3 -0.2
v 0.1 0.3 -0.4
v 0.1 3.8 2.23517e-08
v 0.1 3.8 -0.5
v 0.1 4 2.23517e-08
v 0.1 4 -0.5
v 0.3 0 2.23517e-08
v 0.3 0 -0.5
v 0.3 0.2 2.23517e-08
v 0.3 0.2 -0.5
v 0.3 3.6 2.23517e-08
v 0.3 3.6 -0.5
v 0.3 3.8 2.23517e-08
v 0.3 3.8 -0.5
v 0.4 0.3 -0.3
v 0.4 0.3 -0.4
v 0.4 0.4 -0.3
v 0.4 0.4 -0.4
v 0.6 0.2 2.23517e-08
v 0.6 0.2 -0.5
v 0.6 0.4 2.23517e-08
v 0.6 0.4 -0.5
v 0.6 3.3 2.23517e-08
v 0.6 3.3 -0.5
v 0.6 3.6 2.23517e-08
v 0.6 3.6 -0.5
v 0.8 0.4 2.23517e-08
v 0.8 0.4 -0.5
v 0.8 0.6 2.23517e-08
v 0.8 0.6 -0.5
v 0.8 3.1 2.23517e-08
v 0.8 3.1 -0.5
v 0.8 3.3 2.23517e-08
v 0.8 3.3 -0.5
v 1 0.6 2.23517e-08
v 1 0.6 -0.5
v 1 0.9 2.23517e-08
v 1 0.9 -0.5
v 1.2 0.9 2.23517e-08
v 1.2 0.9 -0.5
v 1.2 1.7 2.23517e-08
v 1.2 1.7 -0.5
v 1.2 2.4 2.23517e-08
v 1.2 2.4 -0.5
v 1.4 2.4 2.23517e-08
v 1.4 2.4 -0.5
v 1.4 3 2.23517e-08
v 1.4 3 -0.5
v 1.6 3 2.23517e-08
v 1.6 3 -0.5
v 1.6 3.3 2.23517e-08
v 1.6 3.3 -0.5
v -1.7 3 2.23517e-08
v -1.7 3.3 2.23517e-08
v -1.5 2.4 2.23517e-08
v -1.5 3 2.23517e-08
v -1.4 3.1 2.23517e-08
v -1.4 3.3 2.23517e-08
v -1.3 0.9 2.23517e-08
v -1.3 1.7 2.23517e-08
v -1.3 2.4 2.23517e-08
v -1 0.6 2.23517e-08
v -1 0.9 2.23517e-08
v -0.8 0.4 2.23517e-08
v -0.8 0.6 2.23517e-08
v -0.8 1.6 2.23517e-08
v -0.8 1.7 2.23517e-08
v -0.8 2 2.23517e-08
v -0.8 3.1 2.23517e-08
v -0.8 3.3 2.23517e-08
v -0.7 1.6 2.23517e-08
v -0.7 1.7 2.23517e-08
v -0.7 1.9 2.23517e-08
v -0.6 0.2 2.23517e-08
v -0.6 0.4 2.23517e-08
v -0.6 1.7 2.23517e-08
v -0.6 1.8 2.23517e-08
v -0.6 1.9 2.23517e-08
v -0.6 2 2.23517e-08
v -0.6 3.3 2.23517e-08
v -0.6 3.6 2.23517e-08
v -0.4 0 2.23517e-08
v -0.4 0.2 2.23517e-08
v -0.4 3.6 2.23517e-08
v -0.4 3.8 2.23517e-08
v -0.2 1.6 2.23517e-08
v -0.2 1.7 2.23517e-08
v -0.2 1.8 2.23517e-08
v -0.2 3.8 2.23517e-08
v -0.2 4 2.23517e-08
v 0.1 1.6 2.23517e-08
v 0.1 1.7 2.23517e-08
v 0.1 1.8 2.23517e-08
v 0.1 3.8 2.23517e-08
v 0.1 4 2.23517e-08
v 0.3 0 2.23517e-08
v 0.3 0.2 2.23517e-08
v 0.3 3.6 2.23517e-08
v 0.3 3.8 2.23517e-08
v 0.6 0.2 2.23517e-08
v 0.6 0.4 2.23517e-08
v 0.6 1.7 2.23517e-08
v 0.6 1.8 2.23517e-08
v 0.6 1.9 2.23517e-08
v 0.6 2 2.23517e-08
v 0.6 3.3 2.23517e-08
v 0.6 3.6 2.23517e-08
v 0.7 1.6 2.23517e-08
v 0.7 1.7 2.23517e-08
v 0.7 1.9 2.23517e-08
v 0.8 0.4 2.23517e-08
v 0.8 0.6 2.23517e-08
v 0.8 1.6 2.23517e-08
v 0.8 1.7 2.23517e-08
v 0.8 2 2.23517e-08
v 0.8 3.1 2.23517e-08
v 0.8 3.3 2.23517e-08
v 1 0.6 2.23517e-08
v 1 0.9 2.23517e-08
v 1.2 0.9 2.23517e-08
v 1.2 1.7 2.23517e-08
v 1.2 2.4 2.23517e-08
v 1.3 3.1 2.23517e-08
v 1.3 3.3 2.23517e-08
v 1.4 2.4 2.23517e-08
v 1.4 3 2.23517e-08
v 1.6 3 2.23517e-08
v 1.6 3.3 2.23517e-08
v -0.7 3 -0.4
v -0.7 3.2 -0.4
v -0.6 2.5 -0.4
v -0.6 3 -0.4
v -0.5 2.5 -0.4
v -0.5 3.2 -0.4
v 0.1 0.1 -0.4
v 0.1 0.3 -0.4
v 0.2 0.1 -0.4
v 0.2 0.3 -0.4
v 0.4 0.3 -0.4
v 0.4 0.4 -0.4
v 0.5 0.3 -0.4
v 0.5 0.4 -0.4
v 0.1 0.1 -0.2
v 0.1 0.3 -0.2
v 0.2 0.1 -0.2
v 0.2 0.3 -0.2
v -0.7 3 -0.3
v -0.7 3.2 -0.3
v -0.6 2.5 -0.3
v -0.6 3 -0.3
v -0.5 2.5 -0.3
v -0.5 3.2 -0.3
v 0.4 0.3 -0.3
v 0.4 0.4 -0.3
v 0.5 0.3 -0.3
v 0.5 0.4 -0.3
v -1.7 3 -0.5
v -1.7 3.3 -0.5
v -1.5 2.4 -0.5
v -1.5 3 -0.5
v -1.4 3.1 -0.5
v -1.4 3.3 -0.5
v -1.3 0.9 -0.5
v -1.3 1.7 -0.5
v -1.3 2.4 -0.5
v -1 0.6 -0.5
v -1 0.9 -0.5
v -0.8 0.4 -0.5
v -0.8 0.6 -0.5
v -0.8 1.6 -0.5
v -0.8 1.7 -0.5
v -0.8 2 -0.5
v -0.8 3.1 -0.5
v -0.8 3.3 -0.5
v -0.7 1.6 -0.5
v -0.7 1.7 -0.5
v -0.7 1.9 -0.5
v -0.6 0.2 -0.5
v -0.6 0.4 -0.5
v -0.6 1.7 -0.5
v -0.6 1.8 -0.5
v -0.6 1.9 -0.5
v -0.6 2 -0.5
v -0.6 3.3 -0.5
v -0.6 3.6 -0.5
v -0.4 0 -0.5
v -0.4 0.2 -0.5
v -0.4 3.6 -0.5
v -0.4 3.8 -0.5
v -0.2 1.6 -0.5
v -0.2 1.7 -0.5
v -0.2 1.8 -0.5
v -0.2 3.8 -0.5
v -0.2 4 -0.5
v 0.1 1.6 -0.5
v 0.1 1.7 -0.5
v 0.1 1.8 -0.5
v 0.1 3.8 -0.5
v 0.1 4 -0.5
v 0.3 0 -0.5
v 0.3 0.2 -0.5
v 0.3 3.6 -0.5
v 0.3 3.8 -0.5
v 0.6 0.2 -0.5
v 0.6 0.4 -0.5
v 0.6 1.7 -0.5
v 0.6 1.8 -0.5
v 0.6 1.9 -0.5
v 0.6 2 -0.5
v 0.6 3.3 -0.5
v 0.6 3.6 -0.5
v 0.7 1.6 -0.5
v 0.7 1.7 -0.5
v 0.7 1.9 -0.5
v 0.8 0.4 -0.5
v 0.8 0.6 -0.5
v 0.8 1.6 -0.5
v 0.8 1.7 -0.5
v 0.8 2 -0.5
v 0.8 3.1 -0.5
v 0.8 3.3 -0.5
v 1 0.6 -0.5
v 1 0.9 -0.5
v 1.2 0.9 -0.5
v 1.2 1.7 -0.5
v 1.2 2.4 -0.5
v 1.3 3.1 -0.5
v 1.3 3.3 -0.5
v 1.4 2.4 -0.5
v 1.4 3 -0.5
v 1.6 3 -0.5
v 1.6 3.3 -0.5
v -0.4 0 2.23517e-08
v 0.3 0 2.23517e-08
v -0.4 0 -0.5
v 0.3 0 -0.5
v -0.6 0.2 2.23517e-08
v -0.4 0.2 2.23517e-08
v 0.3 0.2 2.23517e-08
v 0.6 0.2 2.23517e-08
v -0.6 0.2 -0.5
v -0.4 0.2 -0.5
v 0.3 0.2 -0.5
v 0.6 0.2 -0.5
v 0.1 0.3 -0.2
v 0.2 0.3 -0.2
v 0.1 0.3 -0.4
v 0.2 0.3 -0.4
v -0.8 0.4 2.23517e-08
v -0.6 0.4 2.23517e-08
v 0.6 0.4 2.23517e-08
v 0.8 0.4 2.23517e-08
v 0.4 0.4 -0.3
v 0.5 0.4 -0.3
v 0.4 0.4 -0.4
v 0.5 0.4 -0.4
v -0.8 0.4 -0.5
v -0.6 0.4 -0.5
v 0.6 0.4 -0.5
v 0.8 0.4 -0.5
v -1 0.6 2.23517e-08
v -0.8 0.6 2.23517e-08
v 0.8 0.6 2.23517e-08
v 1 0.6 2.23517e-08
v -1 0.6 -0.5
v -0.8 0.6 -0.5
v 0.8 0.6 -0.5
v 1 0.6 -0.5
v -1.3 0.9 2.23517e-08
v -1 0.9 2.23517e-08
v 1 0.9 2.23517e-08
v 1.2 0.9 2.23517e-08
v -1.3 0.9 -0.5
v -1 0.9 -0.5
v 1 0.9 -0.5
v 1.2 0.9 -0.5
v -1.5 2.4 2.23517e-08
v -1.3 2.4 2.23517e-08
v 1.2 2.4 2.23517e-08
v 1.4 2.4 2.23517e-08
v -1.5 2.4 -0.5
v -1.3 2.4 -0.5
v 1.2 2.4 -0.5
v 1.4 2.4 -0.5
v -1.7 3 2.23517e-08
v -1.5 3 2.23517e-08
v 1.4 3 2.23517e-08
v 1.6 3 2.23517e-08
v -1.7 3 -0.5
v -1.5 3 -0.5
v 1.4 3 -0.5
v 1.6 3 -0.5
v -0.7 3.2 -0.3
v -0.5 3.2 -0.3
v -0.7 3.2 -0.4
v -0.5 3.2 -0.4
v 0.1 0.1 -0.2
v 0.2 0.1 -0.2
v 0.1 0.1 -0.4
v 0.2 0.1 -0.4
v 0.4 0.3 -0.3
v 0.5 0.3 -0.3
v 0.4 0.3 -0.4
v 0.5 0.3 -0.4
v -0.6 2.5 -0.3
v -0.5 2.5 -0.3
v -0.6 2.5 -0.4
v -0.5 2.5 -0.4
v -0.7 3 -0.3
v -0.6 3 -0.3
v -0.7 3 -0.4
v -0.6 3 -0.4
v -1.4 3.1 2.23517e-08
v -0.8 3.1 2.23517e-08
v 0.8 3.1 2.23517e-08
v 1.3 3.1 2.23517e-08
v -1.4 3.1 -0.5
v -0.8 3.1 -0.5
v 0.8 3.1 -0.5
v 1.3 3.1 -0.5
v -1.7 3.3 2.23517e-08
v -1.4 3.3 2.23517e-08
v -0.8 3.3 2.23517e-08
v -0.6 3.3 2.23517e-08
v 0.6 3.3 2.23517e-08
v 0.8 3.3 2.23517e-08
v 1.3 3.3 2.23517e-08
v 1.6 3.3 2.23517e-08
v -1.7 3.3 -0.5
v -1.4 3.3 -0.5
v -0.8 3.3 -0.5
v -0.6 3.3 -0.5
v 0.6 3.3 -0.5
v 0.8 3.3 -0.5
v 1.3 3.3 -0.5
v 1.6 3.3 -0.5
v -0.6 3.6 2.23517e-08
v -0.4 3.6 2.23517e-08
v 0.3 3.6 2.23517e-08
v 0.6 3.6 2.23517e-08
v -0.6 3.6 -0.5
v -0.4 3.6 -0.5
v 0.3 3.6 -0.5
v 0.6 3.6 -0.5
v -0.4 3.8 2.23517e-08
v -0.2 3.8 2.23517e-08
v 0.1 3.8 2.23517e-08
v 0.3 3.8 2.23517e-08
v -0.4 3.8 -0.5
v -0.2 3.8 -0.5
v 0.1 3.8 -0.5
v 0.3 3.8 -0.5
v -0.2 4 2.23517e-08
v 0.1 4 2.23517e-08
v -0.2 4 -0.5
v 0.1 4 -0.5

# faces
f 3/2/1 2/2/1 1/2/1
f 4/2/1 2/2/1 3/2/1
f 7/2/1 6/2/1 5/2/1
f 8/2/1 6/2/1 7/2/1
f 11/1/1 10/1/1 9/1/1
f 12/1/1 10/1/1 11/1/1
f 13/2/1 12/2/1 11/2/1
f 14/2/1 12/2/1 13/2/1
f 17/1/1 16/1/1 15/1/1
f 18/1/1 16/1/1 17/1/1
f 21/1/1 20/1/1 19/1/1
f 22/1/1 20/1/1 21/1/1
f 25/2/1 24/2/1 23/2/1
f 26/2/1 24/2/1 25/2/1
f 29/1/1 28/1/1 27/1/1
f 30/1/1 28/1/1 29/1/1
f 33/2/1 32/2/1 31/2/1
f 34/2/1 32/2/1 33/2/1
f 37/2/1 36/2/1 35/2/1
f 38/2/1 36/2/1 37/2/1
f 41/1/1 40/1/1 39/1/1
f 42/1/1 40/1/1 41/1/1
f 45/2/1 44/2/1 43/2/1
f 46/2/1 44/2/1 45/2/1
f 49/2/1 48/2/1 47/2/1
f 50/2/1 48/2/1 49/2/1
f 53/1/1 52/1/1 51/1/1
f 54/1/1 52/1/1 53/1/1
f 57/1/1 56/1/1 55/1/1
f 58/1/1 56/1/1 57/1/1
f 61/2/1 60/2/1 59/2/1
f 62/2/1 60/2/1 61/2/1
f 63/2/2 64/2/2 65/2/2
f 65/2/2 64/2/2 66/2/2
f 67/2/2 68/2/2 69/2/2
f 69/2/2 68/2/2 70/2/2
f 71/2/2 72/2/2 73/2/2
f 73/2/2 72/2/2 74/2/2
f 75/1/2 76/1/2 77/1/2
f 77/1/2 76/1/2 78/1/2
f 79/2/2 80/2/2 81/2/2
f 81/2/2 80/2/2 82/2/2
f 83/1/2 84/1/2 85/1/2
f 85/1/2 84/1/2 86/1/2
f 87/2/2 88/2/2 89/2/2
f 89/2/2 88/2/2 90/2/2
f 91/1/2 92/1/2 93/1/2
f 93/1/2 92/1/2 94/1/2
f 95/1/2 96/1/2 97/1/2
f 97/1/2 96/1/2 98/1/2
f 99/2/2 100/2/2 101/2/2
f 101/2/2 100/2/2 102/2/2
f 103/1/2 104/1/2 105/1/2
f 105/1/2 104/1/2 106/1/2
f 107/2/2 108/2/2 109/2/2
f 109/2/2 108/2/2 110/2/2
f 111/1/2 112/1/2 113/1/2
f 113/1/2 112/1/2 114/1/2
f 115/1/2 116/1/2 117/1/2
f 117/1/2 116/1/2 118/1/2
f 117/2/2 118/2/2 119/2/2
f 119/2/2 118/2/2 120/2/2
f 121/2/2 122/2/2 123/2/2
f 123/2/2 122/2/2 124/2/2
f 125/2/2 126/2/2 127/2/2
f 127/2/2 126/2/2 128/2/2
f 132/2/3 130/2/3 129/2/3
f 133/2/3 130/2/3 132/2/3
f 133/2/3 132/2/3 131/2/3
f 134/2/3 130/2/3 133/2/3
f 137/2/3 133/2/3 131/2/3
f 139/1/3 136/1/3 135/1/3
f 141/1/3 139/1/3 138/1/3
f 142/1/3 136/1/3 139/1/3
f 142/1/3 139/1/3 141/1/3
f 143/2/3 137/2/3 136/2/3
f 143/1/3 136/1/3 142/1/3
f 144/2/3 137/2/3 143/2/3
f 145/2/3 133/2/3 137/2/3
f 145/2/3 137/2/3 144/2/3
f 147/1/3 142/1/3 141/1/3
f 147/1/3 141/1/3 140/1/3
f 147/2/3 143/2/3 142/2/3
f 148/1/3 144/1/3 143/1/3
f 148/2/3 143/2/3 147/2/3
f 149/1/3 144/1/3 148/1/3
f 151/1/3 147/1/3 140/1/3
f 152/3/3 148/3/3 147/3/3
f 152/3/3 149/3/3 148/3/3
f 153/3/3 149/3/3 152/3/3
f 154/1/3 144/1/3 149/1/3
f 154/3/3 149/3/3 153/3/3
f 155/2/3 146/2/3 145/2/3
f 155/1/3 144/1/3 154/1/3
f 155/2/3 145/2/3 144/2/3
f 156/2/3 146/2/3 155/2/3
f 159/1/3 151/1/3 150/1/3
f 160/2/3 154/2/3 153/2/3
f 160/2/3 156/2/3 155/2/3
f 160/2/3 157/2/3 156/2/3
f 160/2/3 155/2/3 154/2/3
f 162/1/3 159/1/3 158/1/3
f 162/1/3 151/1/3 159/1/3
f 162/3/3 152/3/3 147/3/3
f 162/1/3 147/1/3 151/1/3
f 163/1/3 153/1/3 152/1/3
f 163/3/3 152/3/3 162/3/3
f 164/2/3 161/2/3 160/2/3
f 164/1/3 153/1/3 163/1/3
f 164/2/3 160/2/3 153/2/3
f 165/2/3 161/2/3 164/2/3
f 167/1/3 163/1/3 162/1/3
f 167/1/3 162/1/3 158/1/3
f 168/2/3 166/2/3 165/2/3
f 168/1/3 163/1/3 167/1/3
f 168/2/3 165/2/3 164/2/3
f 168/2/3 164/2/3 163/2/3
f 169/2/3 166/2/3 168/2/3
f 170/2/3 166/2/3 169/2/3
f 171/2/3 166/2/3 170/2/3
f 172/1/3 167/1/3 158/1/3
f 173/1/3 167/1/3 172/1/3
f 174/2/3 170/2/3 169/2/3
f 175/2/3 170/2/3 174/2/3
f 176/1/3 167/1/3 173/1/3
f 177/1/3 167/1/3 176/1/3
f 178/3/3 168/3/3 167/3/3
f 178/1/3 169/1/3 168/1/3
f 179/2/3 174/2/3 169/2/3
f 179/1/3 169/1/3 178/1/3
f 180/2/3 174/2/3 179/2/3
f 181/2/3 174/2/3 180/2/3
f 182/2/3 174/2/3 181/2/3
f 183/2/3 174/2/3 182/2/3
f 184/1/3 167/1/3 177/1/3
f 184/3/3 178/3/3 167/3/3
f 184/3/3 179/3/3 178/3/3
f 184/3/3 180/3/3 179/3/3
f 185/3/3 180/3/3 184/3/3
f 186/1/3 181/1/3 180/1/3
f 186/3/3 180/3/3 185/3/3
f 187/1/3 184/1/3 177/1/3
f 188/1/3 184/1/3 187/1/3
f 189/2/3 185/2/3 184/2/3
f 189/1/3 184/1/3 188/1/3
f 190/1/3 186/1/3 185/1/3
f 190/2/3 185/2/3 189/2/3
f 191/2/3 182/2/3 181/2/3
f 191/1/3 186/1/3 190/1/3
f 191/1/3 181/1/3 186/1/3
f 192/2/3 182/2/3 191/2/3
f 193/2/3 182/2/3 192/2/3
f 194/1/3 190/1/3 189/1/3
f 194/1/3 189/1/3 188/1/3
f 195/1/3 190/1/3 194/1/3
f 196/1/3 190/1/3 195/1/3
f 197/2/3 192/2/3 191/2/3
f 197/1/3 190/1/3 196/1/3
f 197/2/3 191/2/3 190/2/3
f 198/2/3 192/2/3 197/2/3
f 199/2/3 192/2/3 198/2/3
f 201/2/3 199/2/3 198/2/3
f 201/2/3 200/2/3 199/2/3
f 202/2/3 200/2/3 201/2/3
f 203/2/3 200/2/3 202/2/3
f 204/2/3 200/2/3 203/2/3
f 208/2/3 206/2/3 205/2/3
f 209/2/3 208/2/3 207/2/3
f 210/2/3 206/2/3 208/2/3
f 210/2/3 208/2/3 209/2/3
f 213/1/3 212/1/3 211/1/3
f 214/1/3 212/1/3 213/1/3
f 217/1/3 216/1/3 215/1/3
f 218/1/3 216/1/3 217/1/3
f 219/1/4 220/1/4 221/1/4
f 221/1/4 220/1/4 222/1/4
f 223/2/4 224/2/4 226/2/4
f 225/2/4 226/2/4 227/2/4
f 226/2/4 224/2/4 228/2/4
f 227/2/4 226/2/4 228/2/4
f 229/1/4 230/1/4 231/1/4
f 231/1/4 230/1/4 232/1/4
f 233/2/4 234/2/4 236/2/4
f 236/2/4 234/2/4 237/2/4
f 235/2/4 236/2/4 237/2/4
f 237/2/4 234/2/4 238/2/4
f 235/2/4 237/2/4 241/2/4
f 239/1/4 240/1/4 243/1/4
f 242/1/4 243/1/4 245/1/4
f 243/1/4 240/1/4 246/1/4
f 245/1/4 243/1/4 246/1/4
f 240/2/4 241/2/4 247/2/4
f 246/1/4 240/1/4 247/1/4
f 247/2/4 241/2/4 248/2/4
f 241/2/4 237/2/4 249/2/4
f 248/2/4 241/2/4 249/2/4
f 245/1/4 246/1/4 251/1/4
f 244/1/4 245/1/4 251/1/4
f 246/2/4 247/2/4 251/2/4
f 247/1/4 248/1/4 252/1/4
f 251/2/4 247/2/4 252/2/4
f 252/1/4 248/1/4 253/1/4
f 244/1/4 251/1/4 255/1/4
f 251/3/4 252/3/4 256/3/4
f 252/3/4 253/3/4 256/3/4
f 256/3/4 253/3/4 257/3/4
f 253/1/4 248/1/4 258/1/4
f 257/3/4 253/3/4 258/3/4
f 249/2/4 250/2/4 259/2/4
f 258/1/4 248/1/4 259/1/4
f 248/2/4 249/2/4 259/2/4
f 259/2/4 250/2/4 260/2/4
f 254/1/4 255/1/4 263/1/4
f 257/2/4 258/2/4 264/2/4
f 259/2/4 260/2/4 264/2/4
f 260/2/4 261/2/4 264/2/4
f 258/2/4 259/2/4 264/2/4
f 262/1/4 263/1/4 266/1/4
f 263/1/4 255/1/4 266/1/4
f 251/3/4 256/3/4 266/3/4
f 255/1/4 251/1/4 266/1/4
f 256/1/4 257/1/4 267/1/4
f 266/3/4 256/3/4 267/3/4
f 264/2/4 265/2/4 268/2/4
f 267/1/4 257/1/4 268/1/4
f 257/2/4 264/2/4 268/2/4
f 268/2/4 265/2/4 269/2/4
f 266/1/4 267/1/4 271/1/4
f 262/1/4 266/1/4 271/1/4
f 269/2/4 270/2/4 272/2/4
f 271/1/4 267/1/4 272/1/4
f 268/2/4 269/2/4 272/2/4
f 267/2/4 268/2/4 272/2/4
f 272/2/4 270/2/4 273/2/4
f 273/2/4 270/2/4 274/2/4
f 274/2/4 270/2/4 275/2/4
f 262/1/4 271/1/4 276/1/4
f 276/1/4 271/1/4 277/1/4
f 273/2/4 274/2/4 278/2/4
f 278/2/4 274/2/4 279/2/4
f 277/1/4 271/1/4 280/1/4
f 280/1/4 271/1/4 281/1/4
f 271/3/4 272/3/4 282/3/4
f 272/1/4 273/1/4 282/1/4
f 273/2/4 278/2/4 283/2/4
f 282/1/4 273/1/4 283/1/4
f 283/2/4 278/2/4 284/2/4
f 284/2/4 278/2/4 285/2/4
f 285/2/4 278/2/4 286/2/4
f 286/2/4 278/2/4 287/2/4
f 281/1/4 271/1/4 288/1/4
f 271/3/4 282/3/4 288/3/4
f 282/3/4 283/3/4 288/3/4
f 283/3/4 284/3/4 288/3/4
f 288/3/4 284/3/4 289/3/4
f 284/1/4 285/1/4 290/1/4
f 289/3/4 284/3/4 290/3/4
f 281/1/4 288/1/4 291/1/4
f 291/1/4 288/1/4 292/1/4
f 288/2/4 289/2/4 293/2/4
f 292/1/4 288/1/4 293/1/4
f 289/1/4 290/1/4 294/1/4
f 293/2/4 289/2/4 294/2/4
f 285/2/4 286/2/4 295/2/4
f 294/1/4 290/1/4 295/1/4
f 290/1/4 285/1/4 295/1/4
f 295/2/4 286/2/4 296/2/4
f 296/2/4 286/2/4 297/2/4
f 293/1/4 294/1/4 298/1/4
f 292/1/4 293/1/4 298/1/4
f 298/1/4 294/1/4 299/1/4
f 299/1/4 294/1/4 300/1/4
f 295/2/4 296/2/4 301/2/4
f 300/1/4 294/1/4 301/1/4
f 294/2/4 295/2/4 301/2/4
f 301/2/4 296/2/4 302/2/4
f 302/2/4 296/2/4 303/2/4
f 302/2/4 303/2/4 305/2/4
f 303/2/4 304/2/4 305/2/4
f 305/2/4 304/2/4 306/2/4
f 306/2/4 304/2/4 307/2/4
f 307/2/4 304/2/4 308/2/4
f 311/1/5 310/1/5 309/1/5
f 312/1/5 310/1/5 311/1/5
f 317/1/5 314/1/5 313/1/5
f 318/1/5 314/1/5 317/1/5
f 319/1/5 316/1/5 315/1/5
f 320/1/5 316/1/5 319/1/5
f 323/1/5 322/1/5 321/1/5
f 324/1/5 322/1/5 323/1/5
f 331/1/5 330/1/5 329/1/5
f 332/1/5 330/1/5 331/1/5
f 333/1/5 326/1/5 325/1/5
f 334/1/5 326/1/5 333/1/5
f 335/1/5 328/1/5 327/1/5
f 336/1/5 328/1/5 335/1/5
f 341/1/5 338/1/5 337/1/5
f 342/1/5 338/1/5 341/1/5
f 343/1/5 340/1/5 339/1/5
f 344/1/5 340/1/5 343/1/5
f 349/1/5 346/1/5 345/1/5
f 350/1/5 346/1/5 349/1/5
f 351/1/5 348/1/5 347/1/5
f 352/1/5 348/1/5 351/1/5
f 357/2/5 354/2/5 353/2/5
f 358/2/5 354/2/5 357/2/5
f 359/2/5 356/2/5 355/2/5
f 360/2/5 356/2/5 359/2/5
f 365/2/5 362/2/5 361/2/5
f 366/2/5 362/2/5 365/2/5
f 367/2/5 364/2/5 363/2/5
f 368/2/5 364/2/5 367/2/5
f 371/2/5 370/2/5 369/2/5
f 372/2/5 370/2/5 371/2/5
f 373/1/6 374/1/6 375/1/6
f 375/1/6 374/1/6 376/1/6
f 377/1/6 378/1/6 379/1/6
f 379/1/6 378/1/6 380/1/6
f 381/2/6 382/2/6 383/2/6
f 383/2/6 382/2/6 384/2/6
f 385/2/6 386/2/6 387/2/6
f 387/2/6 386/2/6 388/2/6
f 389/2/6 390/2/6 393/2/6
f 393/2/6 390/2/6 394/2/6
f 391/2/6 392/2/6 395/2/6
f 395/2/6 392/2/6 396/2/6
f 397/2/6 398/2/6 405/2/6
f 405/2/6 398/2/6 406/2/6
f 399/2/6 400/2/6 407/2/6
f 407/2/6 400/2/6 408/2/6
f 401/2/6 402/2/6 409/2/6
f 409/2/6 402/2/6 410/2/6
f 403/2/6 404/2/6 411/2/6
f 411/2/6 404/2/6 412/2/6
f 413/2/6 414/2/6 417/2/6
f 417/2/6 414/2/6 418/2/6
f 415/2/6 416/2/6 419/2/6
f 419/2/6 416/2/6 420/2/6
f 421/2/6 422/2/6 425/2/6
f 425/2/6 422/2/6 426/2/6
f 423/2/6 424/2/6 427/2/6
f 427/2/6 424/2/6 428/2/6
f 429/2/6 430/2/6 431/2/6
f 431/2/6 430/2/6 432/2/6
